<svg width="23" height="19" viewBox="0 0 23 19" fill="none" xmlns="http://www.w3.org/2000/svg">
<path d="M13.2039 18.1648L22.0586 9.26399L13.2039 0.363181C13.1239 0.258165 13.0223 0.171557 12.9059 0.109221C12.7896 0.0468839 12.6612 0.0102742 12.5295 0.00186938C12.3977 -0.0065354 12.2657 0.0134615 12.1424 0.0605058C12.0191 0.10755 11.9073 0.180543 11.8146 0.274545C11.722 0.368546 11.6506 0.48136 11.6053 0.60535C11.56 0.72934 11.5419 0.86161 11.5522 0.993207C11.5625 1.1248 11.6009 1.25266 11.6649 1.3681C11.7289 1.48355 11.8169 1.58391 11.9231 1.66237L18.548 8.34259L0.921466 8.34258C0.677094 8.34258 0.442731 8.43966 0.269933 8.61246C0.0971351 8.78526 5.72565e-05 9.01962 5.72565e-05 9.26399C5.72565e-05 9.50837 0.0971351 9.74273 0.269933 9.91553C0.442731 10.0883 0.677094 10.1854 0.921466 10.1854L18.548 10.1854L11.9231 16.8656C11.7508 17.0391 11.6545 17.274 11.6554 17.5185C11.6562 17.763 11.7542 17.9971 11.9277 18.1694C12.1012 18.3417 12.336 18.438 12.5806 18.4371C12.8251 18.4363 13.0592 18.3383 13.2315 18.1648L13.2039 18.1648Z" fill="#19181D"/>
</svg>
