<svg width="12" height="10" viewBox="0 0 12 10" fill="none" xmlns="http://www.w3.org/2000/svg">
<path d="M7.165 9.85708L11.97 5.02708L7.165 0.197079C7.12161 0.140093 7.06647 0.093095 7.00333 0.0592682C6.9402 0.0254414 6.87053 0.00557524 6.79904 0.00101441C6.72756 -0.00354642 6.65593 0.00730486 6.58901 0.0328333C6.52208 0.0583617 6.46142 0.0979713 6.41114 0.148981C6.36085 0.19999 6.32211 0.261209 6.29754 0.328491C6.27297 0.395774 6.26315 0.46755 6.26873 0.538961C6.27431 0.610372 6.29517 0.67975 6.32989 0.742398C6.36462 0.805046 6.4124 0.859502 6.47 0.902079L10.065 4.52708L0.500001 4.52708C0.367392 4.52708 0.240216 4.57976 0.146448 4.67353C0.0526798 4.76729 7.3973e-07 4.89447 7.33934e-07 5.02708C7.28137e-07 5.15969 0.0526798 5.28686 0.146448 5.38063C0.240216 5.4744 0.367392 5.52708 0.500001 5.52708L10.065 5.52708L6.47 9.15208C6.37651 9.24623 6.32425 9.37367 6.32472 9.50635C6.32519 9.63903 6.37835 9.76609 6.4725 9.85958C6.56665 9.95307 6.69409 10.0053 6.82677 10.0049C6.95945 10.0044 7.08651 9.95123 7.18 9.85708L7.165 9.85708Z" fill="white"/>
</svg>
